<?xml version="1.0" encoding="utf-8"?>
<!-- Generator: Adobe Illustrator 26.0.1, SVG Export Plug-In . SVG Version: 6.00 Build 0)  -->
<svg version="1.1" id="Layer_1" xmlns="http://www.w3.org/2000/svg" xmlns:xlink="http://www.w3.org/1999/xlink" x="0px" y="0px"
	 viewBox="0 0 1080 1080" style="enable-background:new 0 0 1080 1080;" xml:space="preserve">
<style type="text/css">
	.st0{fill:#1B1464;}
	.st1{fill:#FFFFFF;}
</style>
<g>
	<path class="st0" d="M883.75,602H546.25c-8.42,0-15.25-6.83-15.25-15.25v-93.51c0-8.42,6.83-15.25,15.25-15.25h337.51
		c8.42,0,15.25,6.83,15.25,15.25v93.51C899,595.17,892.17,602,883.75,602z"/>
	<g>
		<path class="st1" d="M287.69,588.87l-24.11-79.69v79.69h-19.19v-97.73h35.65l17.15,58.49l18.04-58.49h35.76v97.73h-23.05v-79.69
			l-24.58,79.69H287.69z"/>
		<path class="st1" d="M390.8,489.13v21.34h-21.34v-21.34H390.8z M390.8,516.56v72.31h-21.34v-72.31H390.8z"/>
		<path class="st1" d="M471.2,588.87h-21.33v-40.59c0-4.92-0.19-8.28-0.57-10.1c-0.38-1.81-1.31-3.35-2.79-4.62
			c-1.48-1.26-3.34-1.9-5.58-1.9c-7.49,0-11.24,5.54-11.24,16.61v40.59h-21.33v-72.31h19.83v12.24c3.29-5.82,6.54-9.57,9.74-11.24
			c3.2-1.67,6.66-2.51,10.38-2.51c6.87,0,12.41,1.85,16.61,5.55c4.2,3.7,6.3,10.97,6.3,21.8V588.87z"/>
		<path class="st1" d="M512.87,533.17v30.57c0,3.82,0.57,6.37,1.71,7.66c1.14,1.29,3.83,1.93,8.06,1.93c1.95,0,4.21-0.09,6.77-0.29
			v15.82c-6.21,1.05-10.67,1.58-13.39,1.58c-8.88,0-15.18-1.71-18.9-5.12c-3.72-3.41-5.58-9.58-5.58-18.51v-33.65h-11.46v-16.61
			h12.67l1.72-21.34l18.4-1.43v22.77h15.54v16.61H512.87z"/>
		<path class="st1" d="M584.67,588.87l-24.11-79.69v79.69h-19.19v-97.73h35.65l17.15,58.49l18.04-58.49h35.76v97.73h-23.05v-79.69
			l-24.58,79.69H584.67z"/>
		<path class="st1" d="M696.41,515.05c11.01,0,19.61,3.6,25.78,10.81c6.17,7.21,9.26,16.23,9.26,27.06
			c0,10.69-3.21,19.61-9.62,26.74c-6.41,7.14-14.94,10.7-25.57,10.7c-10.3,0-18.54-3.53-24.71-10.6
			c-6.17-7.06-9.26-16.13-9.26-27.21c0-7.68,1.39-14.21,4.18-19.58c2.79-5.37,6.61-9.7,11.48-12.99S688.97,515.05,696.41,515.05z
			 M696.98,529.01c-4.04,0-7.09,1.56-9.14,4.69c-2.05,3.13-3.07,9.34-3.07,18.65c0,8.54,0.98,14.68,2.93,18.4
			c1.95,3.72,5,5.58,9.14,5.58c3.62,0,6.54-1.59,8.78-4.76c2.24-3.17,3.35-9.22,3.35-18.15c0-9.5-0.99-15.94-2.96-19.33
			C704.03,530.71,701.02,529.01,696.98,529.01z"/>
		<path class="st1" d="M774.88,515.05c11.01,0,19.61,3.6,25.78,10.81c6.17,7.21,9.26,16.23,9.26,27.06
			c0,10.69-3.21,19.61-9.62,26.74c-6.41,7.14-14.94,10.7-25.57,10.7c-10.3,0-18.54-3.53-24.71-10.6
			c-6.17-7.06-9.26-16.13-9.26-27.21c0-7.68,1.39-14.21,4.18-19.58c2.79-5.37,6.61-9.7,11.48-12.99S767.44,515.05,774.88,515.05z
			 M775.45,529.01c-4.04,0-7.09,1.56-9.14,4.69c-2.05,3.13-3.07,9.34-3.07,18.65c0,8.54,0.98,14.68,2.93,18.4
			c1.95,3.72,5,5.58,9.14,5.58c3.62,0,6.54-1.59,8.78-4.76c2.24-3.17,3.35-9.22,3.35-18.15c0-9.5-0.99-15.94-2.96-19.33
			C782.5,530.71,779.49,529.01,775.45,529.01z"/>
		<path class="st1" d="M886.24,588.87h-21.33v-40.59c0-4.92-0.19-8.28-0.57-10.1c-0.38-1.81-1.31-3.35-2.79-4.62
			c-1.48-1.26-3.34-1.9-5.58-1.9c-7.49,0-11.24,5.54-11.24,16.61v40.59h-21.33v-72.31h19.83v12.24c3.29-5.82,6.54-9.57,9.74-11.24
			c3.2-1.67,6.66-2.51,10.38-2.51c6.87,0,12.41,1.85,16.61,5.55c4.2,3.7,6.3,10.97,6.3,21.8V588.87z"/>
	</g>
</g>
</svg>
